<svg width="32" height="32" viewBox="0 0 32 32" fill="none" xmlns="http://www.w3.org/2000/svg">
  <rect width="32" height="32" rx="8" fill="#0A0A0A"/>
  <path d="M6 10C6 7.79086 7.79086 6 10 6H22C24.2091 6 26 7.79086 26 10V22C26 24.2091 24.2091 26 22 26H10C7.79086 26 6 24.2091 6 22V10Z" fill="#1A1A1A" stroke="#333333" stroke-width="1"/>
  <path d="M16 8L20 12L16 16L12 12L16 8Z" fill="#00D4AA" stroke="#00D4AA" stroke-width="1"/>
  <path d="M16 16L20 20L16 24L12 20L16 16Z" fill="#00D4AA" stroke="#00D4AA" stroke-width="1"/>
  <circle cx="16" cy="16" r="2" fill="#00D4AA"/>
  <path d="M8 16H12M20 16H24M16 8V12M16 20V24" stroke="#00D4AA" stroke-width="1" stroke-linecap="round"/>
</svg>
